# xmcd
#
# Track frame offsets: 
#        150
#        18383
#        35556
#        56888
#        73533
#        90372
#        110878
#        129318
#        148056
#        170799
#        189808
#
# Disc length: 2757 seconds
#
# Revision: 2
# Processed by: cddbd v1.5.2PL0 Copyright (c) Steve Scherf et al.
# Submitted via: ExactAudioCopyFreeDBPlugin 1.0
#
DISCID=9b0ac30b
DTITLE=陳奕迅 - 準備中
DYEAR=2015
DGENRE=Pop
TTITLE0=老細我撇先
TTITLE1=無條件
TTITLE2=人生馬拉松
TTITLE3=黑洞
TTITLE4=心燒
TTITLE5=喜歡一個人
TTITLE6=萬聖節的一個傳說
TTITLE7=起點。終站
TTITLE8=一個靈魂的獨白
TTITLE9=夢的可能
TTITLE10=異夢
EXTD=
EXTT0=
EXTT1=
EXTT2=
EXTT3=
EXTT4=
EXTT5=
EXTT6=
EXTT7=
EXTT8=
EXTT9=
EXTT10=
PLAYORDER=
